<?xml version="1.0" encoding="utf-8"?>
<!-- Generator: Adobe Illustrator 22.0.0, SVG Export Plug-In . SVG Version: 6.00 Build 0)  -->
<svg version="1.1" id="Layer_1" xmlns="http://www.w3.org/2000/svg" xmlns:xlink="http://www.w3.org/1999/xlink" x="0px" y="0px"
	 viewBox="0 0 24.8 24.1" style="enable-background:new 0 0 24.8 24.1;" xml:space="preserve">
<style type="text/css">
	.st0{fill:#A4872F;}
</style>
<g>
	<g>
		<g>
			<path class="st0" d="M13.8,14.1v-0.5c0-0.7-0.5-1.2-1.2-1.2s-1.2,0.5-1.2,1.2v0.5c0,0.7,0.5,1.2,1.2,1.2
				C13.1,15.5,13.8,14.8,13.8,14.1z"/>
			<path class="st0" d="M14.7,14.8c-0.3,0.9-1,1.6-2.1,1.6s-1.8-0.7-2.1-1.6H2.2c-0.5,0-1-0.1-1.4-0.4v5.5c0,1,0.9,2,2,2h19.9
				c1,0,2-0.9,2-2v-5.5c-0.4,0.3-0.9,0.4-1.4,0.4H14.7L14.7,14.8z"/>
			<path class="st0" d="M14.2,12c0.2,0.2,0.5,0.8,0.5,1.4l7.8,0c1,0,2-0.9,2-2V6.8c0.5-1-0.4-2-1.4-2h-4.7c-0.3-1.8-1.8-3.1-3.7-3.1
				h-3.8C9,1.7,7.5,3,7.2,4.9h-5c-1,0-2.1,0.9-2.1,2v4.6c0,1,0.9,2,2,2h8.2c0-0.7,0.3-1,0.7-1.4l0,0C11.1,11.8,12.6,10.4,14.2,12
				 M8.9,4.9c0.3-0.8,0.9-1.3,1.8-1.3h3.8c0.9,0,1.6,0.7,1.8,1.3H8.9z"/>
		</g>
	</g>
</g>
<g>
</g>
<g>
</g>
<g>
</g>
<g>
</g>
<g>
</g>
<g>
</g>
</svg>
