<?xml version="1.0" encoding="utf-8"?>
<!-- Generator: Adobe Illustrator 22.0.0, SVG Export Plug-In . SVG Version: 6.00 Build 0)  -->
<svg version="1.1" id="Layer_1" xmlns="http://www.w3.org/2000/svg" xmlns:xlink="http://www.w3.org/1999/xlink" x="0px" y="0px"
	 viewBox="0 0 24.8 24.1" style="enable-background:new 0 0 24.8 24.1;" xml:space="preserve">
<style type="text/css">
	.st0{fill:#54400E;}
</style>
<g>
	<path class="st0" d="M16.8,0.3c-4.1,0-7.5,3.4-7.5,7.5c0,0.9,0.1,1.7,0.4,2.6l-9.1,9.1v4.4H5v-2.6h2.6v-2.6h2.6l4-4
		c0.7,0.2,1.7,0.4,2.6,0.4c4.1,0,7.5-3.4,7.5-7.5S21,0.3,16.8,0.3z M19,8.1c-1.5,0-2.6-1.1-2.6-2.6s1.1-2.6,2.6-2.6s2.6,1.1,2.6,2.6
		S20.5,8.1,19,8.1z"/>
</g>
</svg>
