<?xml version="1.0" encoding="utf-8"?>
<!-- Generator: Adobe Illustrator 22.0.0, SVG Export Plug-In . SVG Version: 6.00 Build 0)  -->
<svg version="1.1" id="Layer_1" xmlns="http://www.w3.org/2000/svg" xmlns:xlink="http://www.w3.org/1999/xlink" x="0px" y="0px"
	 viewBox="0 0 24.8 24.1" style="enable-background:new 0 0 24.8 24.1;" xml:space="preserve">
<style type="text/css">
	.st0{fill:#54400E;}
</style>
<path class="st0" d="M24.5,11.7c0.4-0.5,0.4-1.2-0.1-1.7l-11-9.7c-0.5-0.4-1.3-0.4-1.8,0L0.4,10.6c-0.5,0.4-0.5,1.2-0.1,1.7l0.3,0.3
	C1,13,1.8,13.1,2.3,12.7L3.1,12v10.9c0,0.7,0.5,1.2,1.2,1.2h4.3c0.7,0,1.2-0.5,1.2-1.2v-7.6h5.5v7.6c0,0.7,0.4,1.2,1.2,1.2h4.7
	c0.7,0,1.2-0.5,1.2-1.2V12.1c0,0,0.3,0.2,0.5,0.4c0.3,0.3,0.9,0.1,1.3-0.4L24.5,11.7z"/>
</svg>
