<?xml version="1.0" encoding="utf-8"?>
<!-- Generator: Adobe Illustrator 22.0.0, SVG Export Plug-In . SVG Version: 6.00 Build 0)  -->
<svg version="1.1" id="Layer_1" xmlns="http://www.w3.org/2000/svg" xmlns:xlink="http://www.w3.org/1999/xlink" x="0px" y="0px"
	 viewBox="0 0 24.8 24.1" style="enable-background:new 0 0 24.8 24.1;" xml:space="preserve">
<style type="text/css">
	.st0{fill:#A4872F;}
</style>
<path class="st0" d="M22.7,16.8H22V16c0-1.9-1.8-3.5-3.8-3.5h-4.8l0,0v-3h2.1c1.1,0,1.9-0.8,1.9-1.8V3.5c0-0.9-0.8-1.8-1.9-1.8H9.8
	c-1.1,0-1.9,0.8-1.9,1.8v4.2c0,0.9,0.8,1.8,1.9,1.8H12v3l0,0H6.7c-2.1,0-3.8,1.6-3.8,3.5v0.8H2.2c-1.1,0-1.9,0.8-1.9,1.8v2
	c0,0.9,0.8,1.8,1.9,1.8h2.9c1.1,0,1.9-0.8,1.9-1.8v-2c0-0.9-0.8-1.8-1.9-1.8H4.3V16c0-1.3,1.1-2.2,2.4-2.2h5.2l0,0v3h-0.8
	c-1.1,0-1.9,0.8-1.9,1.8v2c0,0.9,0.8,1.8,1.9,1.8H14c1.1,0,1.9-0.8,1.9-1.8v-2c0-0.9-0.8-1.8-1.9-1.8h-0.8v-3l0,0H18
	c1.3,0,2.4,1,2.4,2.2v0.8h-0.8c-1.1,0-1.9,0.8-1.9,1.8v2c0,0.9,0.8,1.8,1.9,1.8h2.9c1.1,0,1.9-0.8,1.9-1.8v-2
	C24.7,17.5,23.7,16.8,22.7,16.8z"/>
<g>
</g>
<g>
</g>
<g>
</g>
<g>
</g>
<g>
</g>
<g>
</g>
</svg>
