<?xml version="1.0" encoding="utf-8"?>
<!-- Generator: Adobe Illustrator 22.0.0, SVG Export Plug-In . SVG Version: 6.00 Build 0)  -->
<svg version="1.1" id="Layer_1" xmlns="http://www.w3.org/2000/svg" xmlns:xlink="http://www.w3.org/1999/xlink" x="0px" y="0px"
	 viewBox="0 0 24.8 24.1" style="enable-background:new 0 0 24.8 24.1;" xml:space="preserve">
<style type="text/css">
	.st0{fill:#54400E;}
</style>
<g>
	<g>
		<g>
			<path class="st0" d="M5.8,13.3l-2.3,3c-0.2,0.4-1.2,0.9-1.5,0.9H0.6v4.2H2c1.8,0,3.9-1.1,5-2.6L8.2,17L5.8,13.3z"/>
		</g>
	</g>
	<g>
		<g>
			<path class="st0" d="M24.2,5l-7.7-4.7v2.6H16c-1.8,0-3.9,1.1-5,2.6L9.9,7.3l2.6,3.6l2.2-3C14.9,7.5,15.9,7,16.2,7h0.5v2.6L24.2,5
				z"/>
		</g>
	</g>
	<g>
		<g>
			<path class="st0" d="M24.2,19.1l-7.7-4.6v2.6H16c-0.5,0-1.3-0.4-1.5-0.9L6.8,5.3c-1.1-1.5-3.1-2.6-5-2.6H0.6v4.2H2
				c0.5,0,1.3,0.4,1.5,0.9l7.7,10.9c1.1,1.5,3.1,2.6,5,2.6h0.5v2.6L24.2,19.1z"/>
		</g>
	</g>
</g>
</svg>
