<?xml version="1.0" encoding="utf-8"?>
<!-- Generator: Adobe Illustrator 22.0.0, SVG Export Plug-In . SVG Version: 6.00 Build 0)  -->
<svg version="1.1" id="Layer_1" xmlns="http://www.w3.org/2000/svg" xmlns:xlink="http://www.w3.org/1999/xlink" x="0px" y="0px"
	 viewBox="0 0 24.8 24.1" style="enable-background:new 0 0 24.8 24.1;" xml:space="preserve">
<style type="text/css">
	.st0{fill:#54400E;}
</style>
<g>
	<g id="Layer_2_16_">
		<g>
			<path class="st0" d="M7.4,7.5c0.1,2,0.9,1.2,1.1,2c0.2,1.4,1.5,2.6,2.4,2.9c0.5,0.2,0.9,0.2,1.4,0.4l0,0l0,0l0,0l0,0
				c0.5,0,0.9-0.1,1.4-0.4c0.8-0.4,2-1.4,2.4-2.9c0.1-0.8,0.9,0,1.1-2c0-0.8-0.5-1.1-0.5-1.1s0.2-1.2,0.2-2.1c0.1-1.1-0.6-4-4.6-4
				c0,0,0,0-0.1,0l0,0l0,0l0,0l0,0l0,0l0,0c0,0,0,0-0.1,0c-4,0-4.8,2.9-4.7,4c0.1,0.8,0.2,2.1,0.2,2.1S7.4,6.8,7.4,7.5z"/>
			<path class="st0" d="M21.4,17.3c-2-1.1-5-2.4-5.2-2.4l0,0c-0.1,0-0.1-0.1-0.2-0.1c-0.4,0-0.7,0.2-0.7,0.5l0,0
				c-0.5,1.3-1.5,3.5-2.1,4.6L13,16.8c0,0,0.8-2,1.1-2.1c0.2-0.5,0-0.8-0.5-0.8c-0.2,0-0.7,0-1.3,0l0,0l0,0l0,0l0,0l0,0l0,0l0,0l0,0
				c-0.5,0-1.1,0-1.3,0c-0.5,0-0.7,0.4-0.5,0.8c0.1,0.1,1.1,2.1,1.1,2.1l-0.1,3.1c-0.6-1.1-1.7-3.4-2.1-4.6l0,0
				c-0.1-0.2-0.5-0.5-0.7-0.5c-0.1,0-0.2,0-0.2,0.1l0,0c-0.1,0.1-3.1,1.4-5.2,2.4c-0.9,0.5-1.4,1.1-1.4,1.7c0,2,0,4.8,0,4.8h10.5
				l0,0l0,0l0,0l0,0l0,0l0,0l0,0l0,0l0,0l0,0l0,0l0,0H23c0,0,0-2.8,0-4.8C22.9,18.5,22.3,17.9,21.4,17.3z"/>
		</g>
	</g>
</g>
</svg>
