<?xml version="1.0" encoding="utf-8"?>
<!-- Generator: Adobe Illustrator 22.0.0, SVG Export Plug-In . SVG Version: 6.00 Build 0)  -->
<svg version="1.1" id="Layer_1" xmlns="http://www.w3.org/2000/svg" xmlns:xlink="http://www.w3.org/1999/xlink" x="0px" y="0px"
	 viewBox="0 0 24.8 24.1" style="enable-background:new 0 0 24.8 24.1;" xml:space="preserve">
<style type="text/css">
	.st0{fill:#54400E;}
</style>
<g>
	<g>
		<g>
			<path class="st0" d="M12.5,0.7c-1.6,0-2.8,1.3-2.8,2.8s1.3,2.8,2.8,2.8s2.8-1.3,2.8-2.8S14.1,0.7,12.5,0.7z"/>
		</g>
	</g>
	<g>
		<g>
			<path class="st0" d="M20.4,13.7c-1.6,0-2.8,1.3-2.8,2.8c0,1.5,1.3,2.8,2.8,2.8c1.5,0,2.8-1.2,2.8-2.8S22,13.7,20.4,13.7z"/>
		</g>
	</g>
	<g>
		<g>
			<path class="st0" d="M23.6,19.3c-0.7,0.9-1.9,1.6-3.3,1.6s-2.5-0.6-3.3-1.6c-0.6,0.6-0.9,1.6-0.9,2.5v1.1c0,0.4,0.3,0.7,0.7,0.7
				H24c0.4,0,0.7-0.3,0.7-0.7v-1.1C24.7,20.9,24.3,20.1,23.6,19.3z"/>
		</g>
	</g>
	<g>
		<g>
			<path class="st0" d="M4.5,13.7c-1.6,0-2.8,1.3-2.8,2.8c0,1.5,1.3,2.8,2.8,2.8s2.8-1.3,2.8-2.8C7.4,14.9,6.2,13.7,4.5,13.7z"/>
		</g>
	</g>
	<g>
		<g>
			<path class="st0" d="M7.8,19.3c-0.7,0.9-1.9,1.5-3.2,1.5s-2.6-0.6-3.3-1.5c-0.6,0.6-1.1,1.6-1.1,2.5v1.1c0,0.4,0.3,0.7,0.7,0.7
				h7.3c0.4,0,0.7-0.3,0.7-0.7v-1.1C8.9,20.9,8.5,20.1,7.8,19.3z"/>
		</g>
	</g>
	<g>
		<g>
			<path class="st0" d="M16.1,10.8c0.4,0,0.7-0.3,0.7-0.7V9c0-0.9-0.4-1.9-0.9-2.5c-0.8,1-1.9,1.6-3.3,1.6s-2.5-0.6-3.3-1.6
				C8.7,7.1,8.4,8.1,8.4,9v1.1c0,0.4,0.3,0.7,0.7,0.7h2.7v4.5l-2.9,1.4c0,0.6-0.2,1.4-0.6,1.8l4.1-2l4.1,2.1
				c-0.3-0.6-0.5-1.2-0.6-1.9L13,15.3v-4.5L16.1,10.8L16.1,10.8z"/>
		</g>
	</g>
</g>
</svg>
