<?xml version="1.0" encoding="utf-8"?>
<!-- Generator: Adobe Illustrator 22.0.0, SVG Export Plug-In . SVG Version: 6.00 Build 0)  -->
<svg version="1.1" id="Layer_1" xmlns="http://www.w3.org/2000/svg" xmlns:xlink="http://www.w3.org/1999/xlink" x="0px" y="0px"
	 viewBox="0 0 24.8 24.1" style="enable-background:new 0 0 24.8 24.1;" xml:space="preserve">
<style type="text/css">
	.st0{fill:#A4872F;}
</style>
<g>
	<path class="st0" d="M22.6,6.1c-1.1-1.8-2.5-3.2-4.3-4.3c-1.8-1.1-3.8-1.7-5.9-1.7c-2.2,0-4.1,0.6-5.9,1.7S3.3,4.4,2.2,6.1
		s-1.7,3.8-1.7,5.9c0,2.2,0.6,4.1,1.7,5.9c1.1,1.8,2.5,3.2,4.3,4.3s3.8,1.7,5.9,1.7c2.2,0,4.1-0.6,5.9-1.7c1.8-1.1,3.2-2.5,4.3-4.3
		c1.1-1.8,1.7-3.8,1.7-5.9C24.2,9.8,23.6,7.9,22.6,6.1z M13.8,18.3c-0.1-0.1-0.1-0.2-0.1-0.4c0,0.1-0.1,0.1-0.1,0.1
		c-0.1-0.1-0.1-0.1-0.2-0.2c-0.1-0.1-0.2-0.1-0.2-0.2L13,17.5c0-0.1-0.1-0.1-0.1-0.2c-0.1-0.1-0.1-0.1-0.1-0.2c0-0.1,0-0.1,0-0.1
		c-0.1,0.1-0.5,0-0.8-0.1c-0.1-0.1-0.1-0.1-0.4-0.4c-0.1-0.1-0.4-0.2-0.5-0.2c-0.1,0-0.1,0-0.2,0.1c-0.1,0-0.1,0-0.2,0
		c-0.1,0-0.1,0-0.2-0.1c-0.1,0-0.1-0.1-0.4-0.1C9.9,16,9.8,16,9.7,16c-0.1-0.1-0.1-0.1-0.1-0.1l-0.2-0.1c-0.1,0-0.1-0.1-0.1-0.1
		c-0.1-0.1-0.1-0.1-0.1-0.2C9.1,15.2,9,15.2,9,15c0-0.1-0.1-0.4-0.1-0.4c-0.1-0.1-0.1-0.2-0.2-0.4c-0.1-0.1-0.2-0.1-0.4-0.1
		c0.1,0,0.1-0.1,0-0.2c-0.1-0.1-0.1-0.2-0.2-0.4l-0.1-0.1c-0.1-0.1-0.1-0.2-0.2-0.4C7.5,13,7.5,13,7.5,12.8c-0.1-0.1-0.1-0.1,0-0.2
		c0,0,0,0,0-0.1l-0.1-0.1c-0.1,0-0.1,0-0.1-0.1c-0.1,0-0.1,0-0.1,0c0,0.1,0.1,0.1,0.1,0.2c0,0.1,0.1,0.1,0.1,0.2
		c0,0.1,0.1,0.1,0.2,0.5C7.9,13.5,8,13.8,8,14.1c-0.1,0-0.1,0-0.1,0c0-0.1,0-0.1-0.1-0.1c0-0.1,0-0.1,0-0.1c0-0.1-0.1-0.1-0.2-0.1
		c-0.1-0.1-0.2-0.1-0.2-0.2l0,0l0,0c0-0.1-0.1-0.2-0.1-0.4c-0.1-0.1-0.1-0.2-0.1-0.4c-0.1-0.1-0.1-0.1-0.2-0.4
		C6.7,12.3,6.7,12,6.7,12l-0.1-0.1c-0.1-0.1-0.1-0.1-0.2-0.1c-0.1-0.1-0.1-0.1-0.1-0.1l-0.1-0.1C5.8,11.2,5.8,11,5.8,11
		c-0.1,0-0.2-0.1-0.4-0.4c-0.1-0.2-0.1-0.4-0.1-0.6l0,0c0-0.1,0-0.1,0-0.4c0-0.1,0-0.4,0-0.6c0-0.1,0.1-0.2,0.1-0.2
		c-0.1,0-0.1-0.1-0.1-0.1c0-0.1,0-0.2,0-0.4c0,0,0.1,0,0.1,0.1c0.1,0.1,0.1,0.1,0.1,0.1c0.1-0.1,0.1-0.1,0.1-0.2
		c0-0.1-0.1-0.1-0.4-0.4C4.9,7.7,4.7,7.7,4.7,7.7c0.1-0.1,0.1-0.2-0.1-0.4C4.5,7.4,4.5,7.4,4.5,7.4V7.3c0-0.1,0-0.1-0.1-0.1
		c-0.1,0-0.1-0.1-0.1-0.1c0.9-1.4,2.1-2.6,3.7-3.4c0.1,0,0.1,0,0.4,0c0.1,0,0.1,0,0.2,0.1c0.1,0.1,0.1,0.1,0.2,0.1
		C8.8,4,8.8,4,8.8,4c0-0.1,0-0.1-0.1-0.2c0-0.1,0.1-0.1,0.4-0.1c0.2,0,0.4,0,0.5,0C9.4,3.5,9.4,3.4,9.2,3.3L9.1,3.4
		C9,3.3,8.7,3.4,8.5,3.5c0,0-0.1,0-0.1,0.1C8.1,3.4,8,3.4,8,3.4c-0.1,0-0.1,0-0.1,0c0.5-0.2,0.9-0.5,1.4-0.6l0.1,0.1
		c0.1,0.1,0.1,0.1,0.1,0.1H9.4c-0.1,0.1-0.1,0.2,0,0.4c0.1,0.1,0.1,0.1,0.2,0.1c0.1,0,0.1,0,0.4,0c0.2,0,0.2,0,0.2,0h0.1
		c0.4,0,0.5,0,0.4-0.1c0,0.1,0.1,0.1,0.1,0.2C11,3.8,11,3.9,11,3.9c0.1-0.1,0.1-0.1,0-0.2c0-0.1,0-0.1,0-0.2l0.1-0.1
		c0.1,0,0.1-0.1,0.1-0.1c0.1,0,0.1-0.1,0.1-0.1c0.1-0.1,0-0.1-0.1-0.2c0,0-0.1,0-0.1-0.1C11,2.7,11,2.6,11,2.6
		c-0.1,0-0.1-0.1-0.1-0.1c-0.1,0-0.1-0.1-0.1-0.1s0-0.1,0.1-0.1C11,2.1,11,2.1,11.2,2.1c0.2,0,0.2,0,0.4,0.1
		c0.2,0.1,0.4,0.4,0.1,0.4c0.1,0,0.2,0.1,0.4,0.1c0.1,0,0.1,0.1,0.1,0.2c0.1-0.1,0.1-0.2,0.2-0.2s0.1,0.1,0.1,0.2
		c0.1,0.1,0.1,0.1,0.1,0.2c0.1,0.1,0.1,0.1,0.2,0.1C13,3.2,13,3.2,13.1,3.1c0.1-0.1,0.1-0.1,0.1-0.1c-0.1-0.1-0.1-0.1,0-0.1
		c0.1-0.1,0.4-0.1,0.4-0.1l0.1,0.1c0.1,0.1,0.1,0.2-0.1,0.2c0.1,0.1,0.1,0.1,0.1,0.4c0,0.1-0.1,0.1-0.2,0.1c-0.1,0-0.1,0-0.2-0.1
		c-0.1-0.1-0.1-0.1-0.2-0.1s-0.1,0-0.2,0.1c-0.1,0.1-0.1,0.1-0.1,0.2c-0.1,0.1-0.1,0.2-0.1,0.2C12.4,4,12.2,4.1,11.7,4
		c0,0,0,0,0,0.1s-0.1,0.1-0.1,0.2c-0.1,0.1-0.1,0.1-0.1,0.1c-0.1,0.1-0.1,0.2-0.1,0.4c0,0,0,0.1,0,0.2c0,0.1,0,0.2-0.1,0.2
		c0.1,0,0.2,0,0.4,0.1s0.1,0.2,0,0.2c0.4-0.1,0.6,0,0.9,0.1s0.6,0.2,0.6,0.4c0.1-0.1,0.2-0.1,0.5,0c0.1,0.1,0.1,0.2,0.2,0.5
		C13.9,6.7,13.9,7,14,7c0.1,0.1,0.2,0.1,0.4,0.1h0.1c0.1,0,0.1,0,0.1-0.1c0,0,0.1,0,0.1-0.1l0.1-0.1V6.6c-0.1-0.1-0.1-0.1-0.1-0.2
		c0-0.1,0-0.2,0-0.4s0.1-0.1,0.2-0.1c0.1-0.1,0.2-0.1,0.2-0.2c0.1-0.1,0-0.2-0.1-0.4c-0.1-0.1-0.2-0.1-0.2-0.2C14.9,5,14.9,5,15,5
		c0.1-0.1,0.1-0.1,0.1-0.1s0-0.1-0.1-0.1c0-0.1-0.1-0.1-0.1-0.2c0-0.1,0-0.1,0.1-0.1c0.1-0.1,0.2,0,0.5,0c0.2,0.1,0.4,0.1,0.5,0.1
		l0.1,0.1c0.1,0.1,0.1,0.1,0.2,0.1c0.1,0.1,0.1,0.1,0.1,0.1h-0.1C16.4,5,16.4,5,16.4,5.1c0,0.1,0,0.1-0.1,0.1c0.1,0,0.1,0,0.2,0.1
		c0.1,0.1,0.1,0.1,0,0.1h0.1c0.1,0,0.1,0,0.1-0.1c0,0,0.1,0,0.1-0.1L17,5.1c0,0,0,0,0.1,0h0.1c0,0,0,0,0.1-0.1
		c0-0.1,0.1-0.1,0.1-0.1c0.1-0.1,0.1-0.1,0.1-0.1h0.1l0.1,0.1c0,0,0,0.1,0.1,0.1v0.1c0,0.1,0.1,0.1,0.1,0.1l0.1,0.1
		c0,0,0,0.1,0.1,0.2c0,0.1,0.1,0.2,0.1,0.2c0.1,0.1,0.1,0.1,0.2,0.1h0.1c0.1,0,0.1,0,0.1,0C19,5.9,19,6,19,6
		c0.1-0.1,0.1-0.1,0.1-0.1c0,0.1,0.1,0.2,0.1,0.4c0.1,0.1,0.1,0.1,0.2,0.1v0.4c0,0.1-0.1,0.1-0.2,0.1C19.1,6.8,19.1,7,19,7
		c0,0-0.1,0.1-0.2,0.1c-0.1,0.1-0.1,0.1-0.1,0.1c-0.1-0.1-0.4-0.2-0.8-0.1c-0.4,0.1-0.6,0.1-0.8,0.1c-0.1,0.1-0.2,0.1-0.4,0.2
		c0,0,0,0.1-0.1,0.1c0,0.1-0.1,0.1-0.1,0.1l-0.1,0.1c0.1,0,0.1-0.1,0.2-0.1c0.1,0,0.1-0.1,0.1-0.1c0.2-0.1,0.5-0.2,0.6-0.1
		c0.2,0.1,0.2,0.1,0.1,0.2h-0.1h-0.1c0.1,0,0.1,0.1,0.2,0.1c0.1,0,0.1,0.1,0.1,0.1C17.6,8,17.6,8,17.6,8.3c-0.1,0.1-0.4,0.1-0.5,0.1
		c0,0,0,0,0,0.1l-0.2,0.1c0,0-0.1,0-0.1,0.1c-0.1,0.1-0.1,0.1-0.2,0.1C16.5,9,16.4,9,16.4,9v0.1c0,0.1-0.1,0.1-0.1,0
		c0,0.1-0.1,0.1-0.4,0.1c-0.1,0-0.2,0.1-0.4,0.1c0.1,0.1,0.1,0.1,0,0.2c-0.1,0.1-0.2,0.1-0.4,0c-0.1,0-0.1,0.1-0.1,0.1v0.8
		c0.1,0.1,0.1,0.1,0,0.2c0,0,0,0,0.1,0l0.1,0.1c0.1,0,0.1,0.1,0.1,0.1c-0.1,0.1-0.1,0.1-0.1,0.1c0.1,0.1,0,0.4-0.2,0.6
		C15,11.8,15,11.8,15,11.8c-0.1,0.1-0.1,0.1-0.2,0.1c-0.1,0-0.1,0.1-0.1,0.1c-0.1,0.1-0.1,0.1-0.2,0.4c-0.1,0.1-0.1,0.1,0,0.4
		c0,0.1,0.1,0.1,0.4,0.1V13v0.2v0.1c0,0.1,0,0.1,0,0.1c0,0.1,0,0.1,0,0.2c0,0.1,0,0.1-0.1,0.1c-0.1,0-0.1,0-0.1,0
		c-0.1-0.1-0.1-0.2-0.4-0.6c0-0.1-0.1-0.2-0.1-0.4C13.9,13,13.9,13,13.9,13h-0.1c0,0-0.1,0-0.1-0.1c-0.1,0-0.1-0.1-0.1-0.1
		c-0.1,0-0.1-0.1-0.2-0.1s-0.2-0.1-0.2-0.1c-0.2,0.1-0.4,0.1-0.5-0.1c0,0.1,0,0.1,0,0.2c0,0.1,0,0.1,0,0.1c-0.1,0.1-0.1,0.1-0.4,0
		c-0.1-0.1-0.2-0.1-0.4,0c-0.2,0.1-0.4,0.1-0.4,0c0,0,0,0,0.1,0.1c0,0,0.1,0,0.1,0.1c0,0.1,0,0.1-0.1,0.1h-0.1h-0.1h-0.1
		c-0.1,0-0.1,0.1-0.1,0.1c-0.1,0.1-0.1,0.1-0.1,0.1c0.1,0.1,0.1,0.4,0.1,0.4s0,0.2-0.1,0.4c0,0.1,0,0.4,0,0.4c0,0.1,0.1,0.4,0.1,0.6
		c0.1,0.2,0.2,0.4,0.4,0.5c0.1,0.1,0.1,0.1,0.4,0.1c0.1,0,0.4,0,0.4,0c0.1,0,0.1-0.1,0.1-0.1c0-0.1,0.1-0.1,0.1-0.1s0-0.1,0.1-0.1
		c0.1-0.1,0.2-0.4,0.4-0.4s0.2,0,0.2,0c0.1,0,0.1,0.1,0.1,0.1s0,0.1-0.1,0.1c0,0.1-0.1,0.1-0.1,0.2C13,15.5,13,15.5,13,15.5
		c0,0.1,0,0.1-0.1,0.4c0,0.1,0,0.2,0,0.2s0.1,0,0.2,0V16c0-0.1,0-0.1,0-0.1c0.1,0.1,0.1,0.1,0.2,0.1s0.1,0,0.2-0.1
		c0,0,0.1,0.1,0.1,0.2c0.1,0.1,0.1,0.2,0.1,0.4s0,0.1,0.1,0.1c0,0.1,0.1,0.1,0,0.1l-0.1,0.1c-0.1,0-0.1,0-0.1,0.1V17
		c0,0.1,0,0.1,0,0.1s0,0.1,0.1,0.1c0,0.1,0,0.1,0,0.1c0.1,0.4,0.4,0.4,0.7,0.2c0,0.4-0.1,0.5-0.2,0.5C13.9,18.4,13.9,18.3,13.8,18.3
		z M14,21.7c0-0.1,0-0.1,0-0.2c0-0.1,0-0.1,0.1-0.4c0.1-0.1,0.1-0.2,0.1-0.4c-0.1-0.1-0.2-0.1-0.1-0.4c0-0.1,0.1-0.4,0.5-0.6
		c0.1-0.1,0.2-0.4,0.1-0.7c0-0.1-0.1-0.4-0.1-0.6s-0.1-0.4-0.1-0.6l0.1,0.1c0.1,0,0.1,0.1,0.1,0.1l0.1-0.1L15,18l0.1-0.1
		c0-0.1,0-0.1,0-0.1l0.1-0.1c0.1-0.1,0.1-0.1,0.1-0.1c0.1,0,0.1-0.1,0.1-0.1s0.1,0,0.1,0.1c0.1,0.1,0.1,0.1,0,0.4
		c-0.1,0.1-0.1,0.2,0,0.2V18c0,0,0.1-0.1,0.1-0.2c0.1-0.1,0.1-0.1,0.1-0.1h0.1c0.1,0,0.1,0.1,0.1,0.1c0.1,0.1,0.1,0.1,0.1,0.1
		c0.1,0.1,0.4,0.1,0.6,0.4l0,0c0,0,0,0,0.1-0.1c0,0,0.1,0,0.1-0.1h0.5l0,0c0.1,0,0.1,0,0.1,0h0.1c0.1,0,0.1,0.1,0.1,0.1l0.1,0.1
		c0.1,0.1,0.1,0.1,0.1,0.1l0.1,0.1c0.1,0.1,0.1,0.1,0.1,0.1c0.1,0,0.1,0.1,0.1,0.1c0,0.1,0.1,0.1,0,0.1c0.1,0,0.1,0.1,0.4,0.1
		c0,0,0.1,0,0.1,0.1c0.1,0,0.1,0,0.1,0.1C17.9,20.4,16.2,21.4,14,21.7z"/>
</g>
<g>
</g>
<g>
</g>
<g>
</g>
<g>
</g>
<g>
</g>
<g>
</g>
</svg>
