<?xml version="1.0" encoding="utf-8"?>
<!-- Generator: Adobe Illustrator 22.0.0, SVG Export Plug-In . SVG Version: 6.00 Build 0)  -->
<svg version="1.1" id="Layer_1" xmlns="http://www.w3.org/2000/svg" xmlns:xlink="http://www.w3.org/1999/xlink" x="0px" y="0px"
	 viewBox="0 0 24.8 24.1" style="enable-background:new 0 0 24.8 24.1;" xml:space="preserve">
<style type="text/css">
	.st0{fill:#54400E;}
</style>
<g>
	<path class="st0" d="M24.1,12.7l-1.4-2.2L23.6,8c0.1-0.3,0-0.8-0.3-0.9L21,5.9l-0.4-2.5c-0.1-0.3-0.3-0.5-0.8-0.7l-2.6-0.1
		l-1.5-2.1c-0.2-0.2-0.5-0.4-0.9-0.2l-2.4,1.2L10,0.4C9.7,0.1,9.2,0.3,9.1,0.6l-1.5,2L5,2.7C4.7,2.7,4.4,3,4.2,3.4L3.8,5.9L1.5,7.2
		C1.2,7.4,1.1,7.7,1.2,8.1l0.9,2.5l-1.4,2.2c-0.2,0.3-0.2,0.7,0.1,0.9l1.8,1.8l-0.2,2.6c0,0.3,0.2,0.7,0.5,0.9l2.5,0.8l1,2.4
		c0.2,0.3,0.5,0.5,0.9,0.4L9.8,22l2.1,1.6c0.2,0.1,0.3,0.2,0.5,0.2s0.3-0.1,0.5-0.2L15,22l2.5,0.5c0.3,0.1,0.8-0.1,0.9-0.4l1-2.4
		l2.5-0.8c0.3-0.1,0.5-0.4,0.5-0.9l-0.2-2.6l1.8-1.8C24.3,13.4,24.3,13,24.1,12.7z M17.8,9.2L12.6,17c-0.2,0.3-0.5,0.5-0.9,0.5
		c-0.3,0-0.7-0.2-0.9-0.4L7,13.2c-0.2-0.2-0.2-0.8,0-1l1-1c0.2-0.2,0.7-0.2,1,0l2.5,2.5l4.1-6.1c0.2-0.3,0.7-0.4,0.9-0.2l1.2,0.8
		C17.9,8.4,18,8.8,17.8,9.2z"/>
</g>
</svg>
