<?xml version="1.0" encoding="utf-8"?>
<!-- Generator: Adobe Illustrator 22.0.0, SVG Export Plug-In . SVG Version: 6.00 Build 0)  -->
<svg version="1.1" id="Layer_1" xmlns="http://www.w3.org/2000/svg" xmlns:xlink="http://www.w3.org/1999/xlink" x="0px" y="0px"
	 viewBox="0 0 24.8 24.1" style="enable-background:new 0 0 24.8 24.1;" xml:space="preserve">
<style type="text/css">
	.st0{fill:#54400E;}
</style>
<g>
	<path class="st0" d="M12.4,11.9c2.6,0,4.8-2.6,4.8-5.8s-0.6-5.8-4.8-5.8S7.6,2.9,7.6,6.1S9.7,11.9,12.4,11.9z"/>
	<path class="st0" d="M3.4,20.7C3.4,20.5,3.4,20.6,3.4,20.7L3.4,20.7z"/>
	<path class="st0" d="M21.4,20.9C21.4,20.8,21.4,20.5,21.4,20.9L21.4,20.9z"/>
	<path class="st0" d="M21.4,20.5c-0.1-5.5-0.8-7.1-6.4-8.1c0,0-0.8,1-2.6,1s-2.6-1-2.6-1c-5.5,1-6.3,2.5-6.4,7.9c0,0.4,0,0.5,0,0.4
		c0,0.1,0,0.2,0,0.5c0,0,1.3,2.6,9,2.6s9-2.6,9-2.6c0-0.2,0-0.3,0-0.4C21.4,20.9,21.4,20.8,21.4,20.5z"/>
</g>
</svg>
