<?xml version="1.0" encoding="utf-8"?>
<!-- Generator: Adobe Illustrator 21.1.0, SVG Export Plug-In . SVG Version: 6.00 Build 0)  -->
<svg version="1.1" id="Layer_1" xmlns="http://www.w3.org/2000/svg" xmlns:xlink="http://www.w3.org/1999/xlink" x="0px" y="0px"
	 viewBox="0 0 73 30.3" style="enable-background:new 0 0 73 30.3;" xml:space="preserve">
<style type="text/css">
	.st0{fill:#FFFFFF;}
	.st1{fill:#FCB415;}
</style>
<g>
	<path class="st0" d="M15.9,20.3l-1.3-3.4H6.1l-1.3,3.4H0l7.7-20H13l7.7,20H15.9z M10.4,4.6l-3.1,8.6h6.2L10.4,4.6z"/>
	<path class="st0" d="M22.1,10.3C22.1,4.2,26.7,0,32.7,0c4.4,0,6.9,2.4,8.3,4.9l-3.7,1.8c-0.8-1.6-2.6-2.9-4.7-2.9
		c-3.7,0-6.3,2.8-6.3,6.6c0,3.8,2.6,6.6,6.3,6.6c2,0,3.8-1.3,4.7-2.9l3.7,1.8c-1.4,2.5-4,4.9-8.3,4.9C26.7,20.7,22.1,16.5,22.1,10.3
		z"/>
	<path class="st0" d="M58.8,20.3v-8.4h-9.4v8.4h-4.3v-20h4.3v7.8h9.4V0.3H63v20H58.8z"/>
	<path class="st0" d="M68.4,20.3v-20h4.3v20H68.4z"/>
</g>
<rect x="53" y="26.3" class="st1" width="20" height="4"/>
<g>
</g>
<g>
</g>
<g>
</g>
<g>
</g>
<g>
</g>
<g>
</g>
</svg>
