<?xml version="1.0" encoding="utf-8"?>
<!-- Generator: Adobe Illustrator 22.0.0, SVG Export Plug-In . SVG Version: 6.00 Build 0)  -->
<svg version="1.1" id="Layer_1" xmlns="http://www.w3.org/2000/svg" xmlns:xlink="http://www.w3.org/1999/xlink" x="0px" y="0px"
	 viewBox="0 0 32.1 32.1" style="enable-background:new 0 0 32.1 32.1;" xml:space="preserve">
<style type="text/css">
	.st0{fill:#E5BA36;}
</style>
<g>
	<g>
		<path class="st0" d="M9,29.2l-7,1l1-7l7.4,7.4c0.2,0.2,0.4,0.3,0.7,0.3s0.5-0.1,0.7-0.3L30,12.1c1.3-1.3,2.1-3.1,2.1-5
			c0-1.9-0.7-3.7-2.1-5l0,0c-2.8-2.8-7.3-2.8-10,0L1.6,20.5c-0.1,0.1-0.2,0.3-0.3,0.5L0,31.1c0,0.3,0.1,0.6,0.3,0.8
			c0.2,0.2,0.4,0.3,0.7,0.3c0,0,0.1,0,0.1,0l10.1-1.4 M20.4,4.3l3.1,3.1L6.7,24.2l-3.1-3.1L20.4,4.3z M11,28.5l-3-3L24.8,8.7l3,3
			L11,28.5z M29.1,10.4L21.7,3c0.9-0.8,2.1-1.2,3.3-1.2c1.4,0,2.7,0.5,3.7,1.5c1,1,1.5,2.3,1.5,3.7C30.3,8.3,29.9,9.5,29.1,10.4
			L29.1,10.4z M29.1,10.4"/>
	</g>
</g>
</svg>
