<?xml version="1.0" encoding="utf-8"?>
<!-- Generator: Adobe Illustrator 22.0.0, SVG Export Plug-In . SVG Version: 6.00 Build 0)  -->
<svg version="1.1" id="Layer_1" xmlns="http://www.w3.org/2000/svg" xmlns:xlink="http://www.w3.org/1999/xlink" x="0px" y="0px"
	 viewBox="0 0 70.4 70.4" style="enable-background:new 0 0 70.4 70.4;" xml:space="preserve">
<style type="text/css">
	.st0{fill:#666666;}
</style>
<g>
	<g>
		<path class="st0" d="M15.3,30.5c-0.6,0-1.2,0.5-1.2,1.2v7c0,0.6,0.5,1.2,1.2,1.2c0.6,0,1.2-0.5,1.2-1.2v-7
			C16.4,31,15.9,30.5,15.3,30.5L15.3,30.5z M15.3,30.5"/>
		<path class="st0" d="M15.4,0.3L4.3,4.8C1.2,5.9,0,7.5,0,10.5v49.3c0,3.1,1.2,4.6,4.3,5.8l11.1,4.5c0.6,0.2,1.1,0.3,1.6,0.3
			c2.4,0,4.1-2,4.1-4.7v-61C21.1,1.3,18.5-0.8,15.4,0.3L15.4,0.3z M18.8,65.7c0,1.4-0.7,2.3-1.7,2.3c-0.3,0-0.5-0.1-0.8-0.2
			L5.1,63.4c-2.2-0.8-2.8-1.5-2.8-3.6V10.5c0-2.1,0.5-2.8,2.8-3.6l11.1-4.4c0.3-0.1,0.6-0.2,0.8-0.2c1,0,1.7,0.9,1.7,2.3V65.7z
			 M18.8,65.7"/>
	</g>
	<path class="st0" d="M24.5,7h16.6c1.9,0,3.5,1.6,3.5,3.5v17.6c0,0.6,0.5,1.2,1.2,1.2c0.6,0,1.2-0.5,1.2-1.2V10.5
		c0-3.2-2.6-5.9-5.9-5.9H24.5c-0.6,0-1.2,0.5-1.2,1.2C23.3,6.5,23.8,7,24.5,7L24.5,7z M24.5,7"/>
	<path class="st0" d="M45.8,41.1c-0.6,0-1.2,0.5-1.2,1.2v17.6c0,1.9-1.6,3.5-3.5,3.5H24.6c-0.6,0-1.2,0.5-1.2,1.2
		c0,0.6,0.5,1.2,1.2,1.2h16.4c3.2,0,5.9-2.6,5.9-5.9V42.2C46.9,41.6,46.4,41.1,45.8,41.1L45.8,41.1z M45.8,41.1"/>
	<path class="st0" d="M70.3,34.7c-0.1-0.1-0.1-0.3-0.3-0.4L58.3,22.6c-0.5-0.5-1.2-0.5-1.7,0c-0.5,0.5-0.5,1.2,0,1.7l9.7,9.7H27
		c-0.6,0-1.2,0.5-1.2,1.2c0,0.6,0.5,1.2,1.2,1.2h39.4l-9.7,9.7c-0.5,0.5-0.5,1.2,0,1.7c0.2,0.2,0.5,0.3,0.8,0.3
		c0.3,0,0.6-0.1,0.8-0.3L70.1,36c0.1-0.1,0.2-0.2,0.3-0.4C70.4,35.4,70.4,35,70.3,34.7L70.3,34.7z M70.3,34.7"/>
</g>
</svg>
