<?xml version="1.0" encoding="utf-8"?>
<!-- Generator: Adobe Illustrator 22.0.0, SVG Export Plug-In . SVG Version: 6.00 Build 0)  -->
<svg version="1.1" id="Layer_1" xmlns="http://www.w3.org/2000/svg" xmlns:xlink="http://www.w3.org/1999/xlink" x="0px" y="0px"
	 viewBox="0 0 39 44" style="enable-background:new 0 0 39 44;" xml:space="preserve">
<style type="text/css">
	.st0{fill:#666766;}
</style>
<g>
	<g>
		<path class="st0" d="M38.4,36.2c-3.7-3.7-5.6-8.1-5.6-13V16c0-5.5-3.7-9.1-6.8-10.6c-0.9-0.4-1.8-0.7-2.8-1V4c0-2.2-1.8-4-4-4
			c-2.2,0-4,1.8-4,4v0.5c-0.9,0.2-1.7,0.5-2.5,0.9C9.2,7.1,5.6,10.9,5.6,16v7.2c0,5.1-1.8,9.5-5.4,13C0,36.4-0.1,36.8,0,37
			c0.1,0.3,0.3,0.5,0.6,0.6l7.6,1.3c1.4,0.2,2.7,0.4,4,0.6c1.4,2.7,4.1,4.5,7.1,4.5s5.7-1.8,7.1-4.5c1.2-0.2,2.5-0.4,3.9-0.6
			l7.6-1.3c0.3-0.1,0.5-0.3,0.6-0.6C38.7,36.8,38.6,36.4,38.4,36.2L38.4,36.2z M16.8,4c0-1.3,1.1-2.4,2.4-2.4c1.3,0,2.4,1.1,2.4,2.4
			v0.1c-1.6-0.2-3.2-0.2-4.8,0V4z M19.3,42.4c-2,0-3.9-1-5.1-2.7c1.8,0.2,3.5,0.3,5.1,0.3c1.7,0,3.4-0.1,5.1-0.3
			C23.3,41.4,21.4,42.4,19.3,42.4L19.3,42.4z M30.1,37.3c-1.5,0.3-2.9,0.5-4.3,0.6h0c-0.6,0.1-1.2,0.1-1.7,0.2c0,0,0,0,0,0
			c-0.5,0.1-1,0.1-1.5,0.1c-0.1,0-0.2,0-0.3,0c-0.4,0-0.8,0.1-1.3,0.1c-0.1,0-0.2,0-0.3,0c-1,0-2,0-3,0c-0.1,0-0.2,0-0.3,0
			c-0.4,0-0.8,0-1.3-0.1c-0.1,0-0.2,0-0.3,0c-0.5,0-1-0.1-1.5-0.1c0,0,0,0-0.1,0C14,38.1,13.4,38,12.8,38h0
			c-1.3-0.2-2.7-0.4-4.3-0.6l-6.1-1.1c3.2-3.6,4.8-8,4.8-13.1V16c0-4.3,3.1-7.7,6.2-9.1c0.9-0.4,1.8-0.7,2.8-0.9c0,0,0,0,0,0
			c2-0.4,4.1-0.5,6.1-0.1c0,0,0,0,0,0c1,0.2,2.1,0.5,3.1,1c2.9,1.4,5.9,4.7,5.9,9.1v7.2c0,4.8,1.7,9.3,5.1,13.1L30.1,37.3z
			 M30.1,37.3"/>
	</g>
	<path class="st0" d="M24.3,9.1c-3.1-1.4-6.9-1.4-10,0c-1.8,0.8-4.7,3.2-4.8,6.9c0,0.4,0.4,0.8,0.8,0.8h0c0.4,0,0.8-0.4,0.8-0.8
		c0-2.9,2.4-4.8,3.8-5.5c2.7-1.2,6-1.2,8.6,0c0.4,0.2,0.9,0,1.1-0.4C24.9,9.7,24.7,9.3,24.3,9.1L24.3,9.1z M24.3,9.1"/>
</g>
</svg>
