<?xml version="1.0" encoding="utf-8"?>
<!-- Generator: Adobe Illustrator 21.1.0, SVG Export Plug-In . SVG Version: 6.00 Build 0)  -->
<svg version="1.1" id="Layer_1" xmlns="http://www.w3.org/2000/svg" xmlns:xlink="http://www.w3.org/1999/xlink" x="0px" y="0px"
	 viewBox="0 0 16 14.4" style="enable-background:new 0 0 16 14.4;" xml:space="preserve">
<style type="text/css">
	.st0{fill:#CACACA;}
</style>
<g>
	<g>
		<path class="st0" d="M13.6,4H2.4C1,4,0,5,0,6.4v4.8h3.2v3.2h9.6v-3.2H16V6.4C16,5,15,4,13.6,4L13.6,4z M11.2,12.8H4.8v-4h6.4V12.8
			z M13.6,7.2c-0.5,0-0.8-0.3-0.8-0.8c0-0.5,0.3-0.8,0.8-0.8c0.5,0,0.8,0.3,0.8,0.8C14.4,6.9,14.1,7.2,13.6,7.2L13.6,7.2z M12.8,0
			H3.2v3.2h9.6V0z M12.8,0"/>
	</g>
</g>
</svg>
