<?xml version="1.0" encoding="utf-8"?>
<!-- Generator: Adobe Illustrator 22.0.0, SVG Export Plug-In . SVG Version: 6.00 Build 0)  -->
<svg version="1.1" id="Layer_1" xmlns="http://www.w3.org/2000/svg" xmlns:xlink="http://www.w3.org/1999/xlink" x="0px" y="0px"
	 viewBox="0 0 43.2 43.2" style="enable-background:new 0 0 43.2 43.2;" xml:space="preserve">
<style type="text/css">
	.st0{fill:#666766;}
</style>
<g>
	<path class="st0" d="M41,16.8h-4c-0.6,0-1.2-0.4-1.4-1c-0.2-0.6-0.1-1.2,0.3-1.7l2.9-2.9c0.4-0.4,0.6-1,0.6-1.6
		c0-0.6-0.2-1.2-0.6-1.6l-3.6-3.6c-0.8-0.8-2.3-0.8-3.1,0L29,7.4c-0.5,0.5-1.1,0.6-1.7,0.3c-0.6-0.3-1-0.8-1-1.4v-4
		c0-1.2-1-2.2-2.2-2.2H19c-1.2,0-2.2,1-2.2,2.2v4c0,0.6-0.4,1.2-1,1.4c-0.6,0.3-1.2,0.1-1.7-0.3l-2.9-2.9c-0.8-0.8-2.3-0.8-3.1,0
		L4.5,8.1c-0.4,0.4-0.6,1-0.6,1.6c0,0.6,0.2,1.2,0.6,1.6l2.9,2.9c0.5,0.5,0.6,1.1,0.3,1.7c-0.2,0.6-0.8,1-1.4,1h-4
		C1,16.8,0,17.8,0,19v5.2c0,1.2,1,2.2,2.2,2.2h4c0.6,0,1.2,0.4,1.4,1C7.9,28,7.8,28.6,7.4,29l-2.9,2.9c-0.4,0.4-0.6,1-0.6,1.6
		c0,0.6,0.2,1.2,0.6,1.6l3.6,3.6c0.8,0.8,2.3,0.8,3.1,0l2.9-2.9c0.5-0.5,1.1-0.6,1.7-0.3c0.6,0.3,1,0.8,1,1.4v4c0,1.2,1,2.2,2.2,2.2
		h5.2c1.2,0,2.2-1,2.2-2.2v-4c0-0.6,0.4-1.2,1-1.4c0.6-0.3,1.2-0.1,1.7,0.3l2.9,2.9c0.8,0.8,2.3,0.8,3.1,0l3.6-3.6
		c0.4-0.4,0.6-1,0.6-1.6c0-0.6-0.2-1.1-0.6-1.6L35.8,29c-0.5-0.5-0.6-1.1-0.3-1.7c0.2-0.6,0.8-1,1.4-1h4c1.2,0,2.2-1,2.2-2.2V19
		C43.2,17.8,42.2,16.8,41,16.8L41,16.8z M41.6,24.2c0,0.3-0.3,0.6-0.6,0.6h-4c-1.3,0-2.4,0.7-2.9,1.9c-0.5,1.2-0.2,2.5,0.7,3.4
		l2.9,2.9c0.2,0.2,0.2,0.6,0,0.9l-3.6,3.6c-0.2,0.2-0.6,0.2-0.9,0l-2.9-2.9c-0.9-0.9-2.2-1.2-3.4-0.7c-1.2,0.5-1.9,1.6-1.9,2.9v4
		c0,0.3-0.3,0.6-0.6,0.6H19c-0.3,0-0.6-0.3-0.6-0.6v-4c0-1.3-0.7-2.4-1.9-2.9c-0.4-0.2-0.8-0.2-1.2-0.2c-0.8,0-1.6,0.3-2.2,0.9
		l-2.9,2.9c-0.2,0.2-0.6,0.2-0.9,0l-3.6-3.6c-0.2-0.2-0.2-0.6,0-0.9l2.9-2.9c0.9-0.9,1.2-2.2,0.7-3.4c-0.5-1.2-1.6-1.9-2.9-1.9h-4
		c-0.3,0-0.6-0.3-0.6-0.6V19c0-0.3,0.3-0.6,0.6-0.6h4c1.3,0,2.4-0.7,2.9-1.9c0.5-1.2,0.2-2.5-0.7-3.4l-2.9-2.9
		c-0.2-0.2-0.2-0.6,0-0.9l3.6-3.6c0.2-0.2,0.6-0.2,0.9,0L13,8.5c0.9,0.9,2.2,1.2,3.4,0.7c1.2-0.5,1.9-1.6,1.9-2.9v-4
		c0-0.3,0.3-0.6,0.6-0.6h5.2c0.3,0,0.6,0.3,0.6,0.6v4c0,1.3,0.7,2.4,1.9,2.9c1.2,0.5,2.5,0.2,3.4-0.7L33,5.6c0.2-0.2,0.6-0.2,0.9,0
		l3.6,3.6c0.2,0.2,0.2,0.6,0,0.9L34.7,13c-0.9,0.9-1.2,2.2-0.7,3.4c0.5,1.2,1.6,1.9,2.9,1.9h4c0.3,0,0.6,0.3,0.6,0.6V24.2z
		 M41.6,24.2"/>
	<path class="st0" d="M21.6,14.4c-4,0-7.2,3.2-7.2,7.2c0,4,3.2,7.2,7.2,7.2c4,0,7.2-3.2,7.2-7.2C28.8,17.6,25.6,14.4,21.6,14.4
		L21.6,14.4z M21.6,27.2c-3.1,0-5.6-2.5-5.6-5.6c0-3.1,2.5-5.6,5.6-5.6c3.1,0,5.6,2.5,5.6,5.6C27.2,24.7,24.7,27.2,21.6,27.2
		L21.6,27.2z M21.6,27.2"/>
</g>
</svg>
