<?xml version="1.0" encoding="utf-8"?>
<!-- Generator: Adobe Illustrator 22.0.0, SVG Export Plug-In . SVG Version: 6.00 Build 0)  -->
<svg version="1.1" id="Layer_1" xmlns="http://www.w3.org/2000/svg" xmlns:xlink="http://www.w3.org/1999/xlink" x="0px" y="0px"
	 viewBox="0 0 139 141.2" style="enable-background:new 0 0 139 141.2;" xml:space="preserve">
<style type="text/css">
	.st0{fill:#B2B2B2;}
</style>
<g>
	<path class="st0" d="M48.5,0C21.8,0,0,21.8,0,48.5S21.8,97,48.5,97c12.1,0,23.1-4.4,31.6-11.7l8,8c-2.9,4.3-2.3,10.3,1.7,14.2
		l31.9,31.9c1.2,1.2,2.9,1.9,4.6,1.9s3.4-0.7,4.6-1.9l6.3-6.3c1.2-1.2,1.9-2.9,1.9-4.6c0-1.7-0.7-3.4-1.9-4.6L105,91.7
		c-2.1-2.1-5-3.3-8-3.2c-2.1,0.1-4.1,0.7-5.8,1.9l-7.9-7.9c8.4-8.8,13.7-20.8,13.7-34C97,21.8,75.2,0,48.5,0L48.5,0z M92.7,104.5
		c-2.7-2.7-3-7-0.6-9.7c1.3-1.4,3-2.2,4.9-2.2c0.1,0,0.1,0,0.2,0c1.8,0,3.5,0.7,4.8,2l32.2,32.2c0.4,0.4,0.7,1,0.7,1.7
		c0,0.6-0.2,1.2-0.7,1.7l-6.3,6.3c-0.4,0.4-1,0.7-1.7,0.7c-0.6,0-1.2-0.2-1.7-0.7L92.7,104.5L92.7,104.5z M48.5,92.8
		C24,92.8,4.1,72.9,4.1,48.5C4.1,24,24,4.1,48.5,4.1S92.8,24,92.8,48.5C92.8,72.9,72.9,92.8,48.5,92.8L48.5,92.8z"/>
	<path class="st0" d="M13.5,37.4"/>
</g>
</svg>
