<?xml version="1.0" encoding="utf-8"?>
<!-- Generator: Adobe Illustrator 22.0.0, SVG Export Plug-In . SVG Version: 6.00 Build 0)  -->
<svg version="1.1" id="Layer_1" xmlns="http://www.w3.org/2000/svg" xmlns:xlink="http://www.w3.org/1999/xlink" x="0px" y="0px"
	 viewBox="0 0 16.7 21.9" style="enable-background:new 0 0 16.7 21.9;" xml:space="preserve">
<style type="text/css">
	.st0{fill:#E6BA38;}
</style>
<g>
	<path class="st0" d="M15.3,2.8h-3.9C11.2,1.2,9.9,0,8.3,0C6.7,0,5.4,1.2,5.1,2.8H1.3C0.6,2.8,0,3.4,0,4.1v1.4
		c0,0.7,0.5,1.2,1.1,1.3v13.3c0,1,0.8,1.8,1.8,1.8h10.8c1,0,1.8-0.8,1.8-1.8V6.8c0.7-0.1,1.1-0.7,1.1-1.3V4.1
		C16.7,3.4,16.1,2.8,15.3,2.8L15.3,2.8z M8.3,1c1.1,0,1.9,0.7,2.1,1.7H6.1C6.4,1.8,7.2,1,8.3,1L8.3,1z M14.5,20.1
		c0,0.4-0.3,0.8-0.8,0.8H2.9c-0.4,0-0.8-0.3-0.8-0.8V6.8h12.3L14.5,20.1L14.5,20.1z M15.6,5.5c0,0.2-0.1,0.3-0.3,0.3h-14
		C1.1,5.8,1,5.7,1,5.5V4.1c0-0.2,0.1-0.3,0.3-0.3h14c0.2,0,0.3,0.1,0.3,0.3L15.6,5.5L15.6,5.5z M4.4,18.3V9.6c0-0.3,0.2-0.5,0.5-0.5
		c0.3,0,0.5,0.2,0.5,0.5v8.6c0,0.3-0.2,0.5-0.5,0.5C4.6,18.8,4.4,18.5,4.4,18.3L4.4,18.3z M7.9,18.3V9.6c0-0.3,0.2-0.5,0.5-0.5
		c0.3,0,0.5,0.2,0.5,0.5v8.6c0,0.3-0.2,0.5-0.5,0.5C8.1,18.8,7.9,18.5,7.9,18.3L7.9,18.3z M11.3,18.3V9.6c0-0.3,0.2-0.5,0.5-0.5
		s0.5,0.2,0.5,0.5v8.6c0,0.3-0.2,0.5-0.5,0.5C11.6,18.8,11.3,18.5,11.3,18.3L11.3,18.3z M11.3,18.3"/>
</g>
</svg>
